<svg width="32" height="32" viewBox="0 0 32 32" fill="none" xmlns="http://www.w3.org/2000/svg">
<g clip-path="url(#clip0_208_265)">
<path d="M7 26.26V4H15.6058C17.5547 4 19.2299 4.33833 20.6314 5.015C22.0328 5.66833 23.1058 6.625 23.8504 7.885C24.6168 9.12167 25 10.6267 25 12.4C25 14.1267 24.6168 15.62 23.8504 16.88C23.1058 18.1167 22.0328 19.0733 20.6314 19.75C19.2299 20.4033 17.5547 20.73 15.6058 20.73H8.34671L9.43066 19.54V26.26L8.34671 28.5L7 26.26ZM22.7007 28.5L16.7883 19.61H19.4161L25 28.5H22.7007ZM9.43066 19.75L8.34671 18.525H15.5401C17.8394 18.525 19.5803 17.9883 20.7628 16.915C21.9672 15.8417 22.5693 14.3367 22.5693 12.4C22.5693 10.44 21.9672 8.92333 20.7628 7.85C19.5803 6.77667 17.8394 6.24 15.5401 6.24H8.34671L9.43066 5.015V19.75Z" fill="black"/>
<path d="M13.1095 28.5V4H15.5401V26.26H23.593L25 28.5H13.1095Z" fill="black"/>
</g>
<defs>
<clipPath id="clip0_208_265">
<rect width="32" height="32" fill="white"/>
</clipPath>
</defs>
</svg>
