<svg width="60" height="44" viewBox="0 0 60 44" fill="none" xmlns="http://www.w3.org/2000/svg">
<path d="M10.7826 44C7.42029 44 4.75362 42.8853 2.78261 40.656C0.927536 38.4267 0 35.728 0 32.56V30.976C0 28.3947 0.463768 25.696 1.3913 22.88C2.31884 20.064 3.53623 17.248 5.04348 14.432C6.66667 11.616 8.52174 8.976 10.6087 6.512C12.8116 4.048 15.1304 1.87733 17.5652 0H26.2609C22.3188 3.52 19.0145 7.21599 16.3478 11.088C13.6812 14.8427 11.942 18.4213 11.1304 21.824H11.4783C14.7246 21.824 17.2174 22.88 18.9565 24.992C20.6957 27.104 21.5652 29.5093 21.5652 32.208V33.264C21.5652 36.3147 20.5797 38.896 18.6087 41.008C16.6377 43.0027 14.029 44 10.7826 44ZM44.5217 44C41.1594 44 38.4928 42.8853 36.5217 40.656C34.6667 38.4267 33.7391 35.728 33.7391 32.56V30.976C33.7391 28.3947 34.2029 25.696 35.1304 22.88C36.058 20.064 37.2754 17.248 38.7826 14.432C40.4058 11.616 42.2609 8.976 44.3478 6.512C46.5507 4.048 48.8696 1.87733 51.3043 0H60C56.058 3.52 52.7536 7.21599 50.087 11.088C47.4203 14.8427 45.6812 18.4213 44.8696 21.824H45.2174C48.4638 21.824 50.9565 22.88 52.6957 24.992C54.4348 27.104 55.3043 29.5093 55.3043 32.208V33.264C55.3043 36.3147 54.3188 38.896 52.3478 41.008C50.3768 43.0027 47.7681 44 44.5217 44Z" fill="#BCFF9A"/>
</svg>
