<svg width="60" height="44" viewBox="0 0 60 44" fill="none" xmlns="http://www.w3.org/2000/svg">
<path d="M0 44C3.94203 40.48 7.24638 36.8427 9.91304 33.088C12.5797 29.216 14.3188 25.5787 15.1304 22.176H14.7826C11.5362 22.176 9.04348 21.12 7.30435 19.008C5.56522 16.896 4.69565 14.4907 4.69565 11.792V10.736C4.69565 7.68533 5.68116 5.16266 7.65217 3.168C9.62319 1.056 12.2319 0 15.4783 0C18.8406 0 21.4493 1.11467 23.3043 3.344C25.2754 5.57333 26.2609 8.272 26.2609 11.44V13.024C26.2609 15.6053 25.7971 18.304 24.8696 21.12C23.942 23.936 22.6667 26.752 21.0435 29.568C19.5362 32.384 17.6812 35.024 15.4783 37.488C13.3913 39.952 11.1304 42.1227 8.69565 44H0ZM33.7391 44C37.6812 40.48 40.9855 36.8427 43.6522 33.088C46.3188 29.216 48.058 25.5787 48.8696 22.176H48.5217C45.2754 22.176 42.7826 21.12 41.0435 19.008C39.3043 16.896 38.4348 14.4907 38.4348 11.792V10.736C38.4348 7.68533 39.4203 5.16266 41.3913 3.168C43.3623 1.056 45.971 0 49.2174 0C52.5797 0 55.1884 1.11467 57.0435 3.344C59.0145 5.57333 60 8.272 60 11.44V13.024C60 15.6053 59.5362 18.304 58.6087 21.12C57.6812 23.936 56.4058 26.752 54.7826 29.568C53.2754 32.384 51.4203 35.024 49.2174 37.488C47.1304 39.952 44.8696 42.1227 42.4348 44H33.7391Z" fill="#BCFF9A"/>
</svg>
