<svg width="36" height="49" viewBox="0 0 36 49" fill="none" xmlns="http://www.w3.org/2000/svg">
<path d="M0 44.52V0H17.2117C21.1095 0 24.4599 0.676668 27.2628 2.03C30.0657 3.33667 32.2117 5.25 33.7007 7.77C35.2336 10.2433 36 13.2533 36 16.8C36 20.2533 35.2336 23.24 33.7007 25.76C32.2117 28.2333 30.0657 30.1467 27.2628 31.5C24.4599 32.8067 21.1095 33.46 17.2117 33.46H2.69343L4.86131 31.08V44.52L2.69343 49L0 44.52ZM31.4015 49L19.5766 31.22H24.8321L36 49H31.4015ZM4.86131 31.5L2.69343 29.05H17.0803C21.6788 29.05 25.1606 27.9767 27.5255 25.83C29.9343 23.6833 31.1387 20.6733 31.1387 16.8C31.1387 12.88 29.9343 9.84667 27.5255 7.7C25.1606 5.55333 21.6788 4.48 17.0803 4.48H2.69343L4.86131 2.03V31.5Z" fill="white"/>
<path d="M12.219 49V0H17.0803V44.52H33.186L36 49H12.219Z" fill="white"/>
</svg>
